{
  "title": "X-Men Apocalypse - 2016 - 720p HC HDRip - Dual Audio (English -",
  "uid": 15367128,
  "size": 724804265,
  "categoryP": "video",
  "categoryS": "movies",
  "magnet": "?xt=urn:btih:0bf6430c4eb27ea8e5ca81229ec6b577bb2ce721&amp;dn=X-Men+Apocalypse+-+2016+-+720p+HC+HDRip+-+Dual+Audio+%28English+-+&amp;tr=udp%3A%2F%2Ftracker.leechers-paradise.org%3A6969&amp;tr=udp%3A%2F%2Fzer0day.ch%3A1337&amp;tr=udp%3A%2F%2Fopen.demonii.com%3A1337&amp;tr=udp%3A%2F%2Ftracker.coppersurfer.tk%3A6969&amp;tr=udp%3A%2F%2Fexodus.desync.com%3A6969",
  "seeders": 122,
  "leechers": 17,
  "uploader": "makintos13",
  "files": 1,
  "time": 1469091468,
  "description": "X-Men Apocalypse - 2016 - 720p HC HDRip - Dual Audio (English - Hindi[Cam]) - Makintos13\r\n\r\nScreens:\r\n \nhttps://imgmak.com/image/T4J\r\n \nhttps://imgmak.com/image/T4W\r\n \nhttps://imgmak.com/image/T4d\r\n \nhttps://imgmak.com/image/T44\r\n\r\normat : Matroska\r\nFormat version : Version 4 / Version 2\r\nFile size : 691 MiB\r\nDuration : 2h 23mn\r\nOverall bit rate : 674 Kbps\r\n\r\nVideo\r\nID : 3\r\nFormat : AVC\r\nFormat/Info : Advanced Video Codec\r\nFormat profile :   \r\nFormat settings, CABAC : Yes\r\nFormat settings, ReFrames : 4 frames\r\nCodec ID : V_MPEG4/ISO/AVC\r\nDuration : 2h 23mn\r\nBit rate : 549 Kbps\r\nWidth : 1 280 pixels\r\nHeight : 720 pixels\r\nDisplay aspect ratio : 16:9\r\nFrame rate mode : Constant\r\nFrame rate : 30.000 fps\r\nColor space : YUV\r\nChroma subsampling : 4:2:0\r\nBit depth : 8 bits\r\nScan type : Progressive\r\nBits/(Pixel*Frame) : 0.020\r\nStream size : 563 MiB (81%)\r\nDefault : Yes\r\nForced : No\r\n\r\nAudio #1\r\nID : 1\r\nFormat : AAC\r\nFormat/Info : Advanced Audio Codec\r\nFormat profile : LC\r\nCodec ID : A_AAC\r\nDuration : 2h 13mn\r\nBit rate : 61.5 Kbps\r\nChannel(s) : 2 channels\r\nChannel positions : Front: L R\r\nSampling rate : 48.0 KHz\r\nFrame rate : 46.875 fps (1024 spf)\r\nCompression mode : Lossy\r\nDelay relative to video : 46ms\r\nStream size : 58.9 MiB (9%)\r\nTitle : Stereo\r\nLanguage : Hindi\r\nDefault : Yes\r\nForced : No\r\n\r\nAudio #2\r\nID : 2\r\nFormat : AAC\r\nFormat/Info : Advanced Audio Codec\r\nFormat profile : LC\r\nCodec ID : A_AAC\r\nDuration : 2h 23mn\r\nBit rate : 64.2 Kbps\r\nChannel(s) : 2 channels\r\nChannel positions : Front: L R\r\nSampling rate : 48.0 KHz\r\nFrame rate : 46.875 fps (1024 spf)\r\nCompression mode : Lossy\r\nDelay relative to video : 46ms\r\nStream size : 65.8 MiB (10%)\r\nTitle : Stereo\r\nDefault : No\r\nForced : No\r\nSource : Big Thanks RCCL\r\n\r\nNote :\r\n\r\nHindi Audio isnt great but is what he have right now",
  "parsed": {
    "xt": "urn:btih:0bf6430c4eb27ea8e5ca81229ec6b577bb2ce721",
    "dn": "X-Men Apocalypse - 2016 - 720p HC HDRip - Dual Audio (English - ",
    "tr": [
      "udp://exodus.desync.com:6969",
      "udp://open.demonii.com:1337",
      "udp://tracker.coppersurfer.tk:6969",
      "udp://tracker.leechers-paradise.org:6969",
      "udp://zer0day.ch:1337"
    ],
    "infoHash": "0bf6430c4eb27ea8e5ca81229ec6b577bb2ce721",
    "infoHashBuffer": {
      "type": "Buffer",
      "data": [
        11,
        246,
        67,
        12,
        78,
        178,
        126,
        168,
        229,
        202,
        129,
        34,
        158,
        198,
        181,
        119,
        187,
        44,
        231,
        33
      ]
    },
    "name": "X-Men Apocalypse - 2016 - 720p HC HDRip - Dual Audio (English - ",
    "announce": [
      "udp://exodus.desync.com:6969",
      "udp://open.demonii.com:1337",
      "udp://tracker.coppersurfer.tk:6969",
      "udp://tracker.leechers-paradise.org:6969",
      "udp://zer0day.ch:1337"
    ],
    "urlList": []
  },
  "previous": 150,
  "peers": 222,
  "last_updated": "2016-12-26T15:57:30.183Z"
}